# xmcd CD database file
#
# Track frame offsets:
#	150
#	21042
#	44410
#	65243
#	86159
#	118729
#	140067
#	161906
#	184407
#	206163
#	223560
#	244412
#	264064
#	287613
#
# Disc length: 4170 seconds
#
# Revision: 0
# Processed by: cddbd v1.5.2PL0 Copyright (c) Steve Scherf et al.
# Submitted via: CDex 1.51
#
DISCID=e110480e
DTITLE=Chubby Rae and the Elevators - She Gets Unruly
DYEAR=2005
DGENRE=Blues
TTITLE0=I Got A Fever
TTITLE1=Call Me
TTITLE2=Dancin' Shoes
TTITLE3=Lovers' Rule
TTITLE4=Everyday Blues
TTITLE5=I Get Nervous
TTITLE6=What Is It
TTITLE7=Wannabe
TTITLE8=That Kinda Woman
TTITLE9=Voodoo Swamp
TTITLE10=Doin' Time
TTITLE11=Brand New Life
TTITLE12=Love Me Slow
TTITLE13=If I Could Make A Man
EXTD=YEAR: 2005
EXTT0=
EXTT1=
EXTT2=
EXTT3=
EXTT4=
EXTT5=
EXTT6=
EXTT7=
EXTT8=
EXTT9=
EXTT10=
EXTT11=
EXTT12=
EXTT13=
PLAYORDER=
